<?xml version="1.0" standalone="no"?>
<!DOCTYPE svg PUBLIC "-//W3C//DTD SVG 20010904//EN"
 "http://www.w3.org/TR/2001/REC-SVG-20010904/DTD/svg10.dtd">
<svg version="1.0" xmlns="http://www.w3.org/2000/svg"
 width="1024.000000pt" height="1024.000000pt" viewBox="0 0 1024.000000 1024.000000"
 preserveAspectRatio="xMidYMid meet">

<g transform="translate(0.000000,1024.000000) scale(0.100000,-0.100000)"
fill="#FFFFFF" stroke="none">
<path d="M7652 9597 c-142 -142 -172 -177 -172 -201 0 -15 25 -74 55 -131 55
-102 55 -103 50 -171 -3 -38 -15 -238 -26 -443 -11 -206 -22 -379 -25 -383 -3
-4 -128 -8 -279 -8 l-273 0 -31 -26 -31 -26 0 -142 c0 -203 -19 -190 293 -194
l242 -3 -2 -187 c-4 -348 -23 -1264 -39 -1947 -18 -728 -15 -830 26 -1020 57
-258 202 -553 354 -720 l46 -50 49 52 c131 139 270 412 330 648 51 204 54 263
47 925 -3 338 -13 930 -21 1315 -8 385 -15 764 -15 843 l0 142 231 0 c321 0
319 -1 319 206 0 111 -1 114 -29 146 l-29 33 -289 5 -288 5 -2 35 c-1 19 -12
222 -24 450 l-22 415 52 102 c28 57 51 116 51 132 0 24 -28 58 -166 200 -114
117 -173 171 -188 171 -14 0 -77 -56 -194 -173z"/>
<path d="M4708 9665 c-398 -55 -760 -244 -1010 -530 -148 -168 -253 -348 -312
-531 -60 -186 -59 -163 -63 -999 -3 -568 -1 -780 7 -810 22 -72 199 -235 431
-397 306 -213 656 -383 888 -430 62 -12 64 -12 82 11 19 23 19 41 13 520 -3
273 -9 627 -13 788 l-6 292 -30 31 c-33 35 -64 45 -549 185 -165 47 -309 91
-320 97 -39 20 -66 51 -72 85 -9 45 1 75 33 108 27 26 31 27 103 22 41 -2 273
-44 515 -93 553 -111 529 -110 920 -31 373 75 659 127 696 127 46 0 89 -47 89
-99 0 -50 -16 -86 -47 -106 -13 -9 -200 -68 -416 -131 -216 -63 -407 -123
-426 -132 -19 -9 -44 -30 -55 -45 -20 -27 -21 -49 -35 -802 -13 -721 -13 -776
3 -799 20 -31 61 -34 160 -11 212 49 497 187 751 363 221 153 455 358 481 419
11 26 14 173 14 782 0 703 -1 756 -20 866 -112 657 -673 1167 -1380 1254 -112
14 -311 12 -432 -4z"/>
<path d="M1493 6893 c-12 -2 -34 -18 -48 -34 l-25 -31 0 -1123 c0 -946 2
-1124 14 -1134 10 -8 66 -10 202 -5 150 5 217 3 324 -10 254 -33 572 -128 819
-247 68 -32 127 -56 132 -53 5 3 9 429 9 1007 0 922 -1 1005 -17 1027 -124
184 -428 381 -751 488 -186 62 -576 130 -659 115z"/>
<path d="M1175 6581 c-48 -12 -75 -30 -95 -64 -19 -31 -20 -61 -20 -1140 0
-1222 -4 -1148 63 -1184 29 -16 77 -19 467 -24 477 -7 512 -10 742 -73 151
-42 166 -49 272 -130 119 -91 192 -114 376 -123 196 -9 306 25 431 133 30 25
66 52 80 59 37 20 214 72 349 103 l115 26 1730 3 c951 2 1733 7 1738 12 5 5
-12 49 -37 99 -56 111 -118 288 -144 413 -36 168 -45 288 -38 519 3 118 9 339
13 491 l6 276 -94 95 c-155 155 -334 277 -513 348 -132 53 -127 54 -236 -40
-510 -438 -1016 -660 -1480 -648 l-125 3 -5 -671 c-5 -654 -6 -672 -25 -694
-23 -25 -27 -25 -240 5 -142 20 -393 16 -545 -10 -264 -44 -584 -155 -740
-255 l-47 -30 -168 0 -168 0 -46 30 c-165 105 -509 219 -793 260 -162 24 -361
26 -513 4 -202 -29 -198 -29 -220 -4 -20 22 -20 34 -17 1106 3 841 1 1088 -8
1099 -13 16 -19 17 -65 6z"/>
<path d="M3320 6417 c-67 -27 -132 -72 -180 -122 l-35 -36 0 -997 c0 -1124 -8
-1027 81 -974 119 69 359 158 574 212 231 59 276 64 550 64 140 1 261 5 268 9
9 6 12 138 12 601 0 463 -3 596 -12 603 -7 6 -44 20 -83 32 -324 104 -657 285
-996 543 -64 48 -118 88 -120 88 -2 0 -29 -11 -59 -23z"/>
<path d="M2055 3536 c-211 -34 -385 -123 -522 -269 -164 -176 -249 -397 -260
-678 -7 -169 7 -302 44 -429 81 -281 280 -499 542 -594 226 -82 558 -74 755
18 l71 33 101 -106 c94 -99 102 -105 125 -95 26 12 219 182 219 193 0 4 -43
53 -95 109 -60 65 -93 107 -88 115 4 7 23 32 42 57 50 65 109 196 138 308 20
79 26 129 30 264 8 256 -19 405 -108 584 -178 362 -571 556 -994 490z m243
-376 c255 -33 411 -249 429 -592 8 -155 -12 -280 -64 -405 l-13 -33 -104 107
-103 107 -43 -32 c-57 -41 -190 -161 -190 -171 0 -4 48 -58 106 -119 66 -70
101 -114 92 -116 -83 -28 -226 -35 -320 -15 -171 37 -291 161 -350 364 -20 71
-23 102 -23 265 0 163 3 194 23 265 70 243 230 375 462 383 14 1 58 -3 98 -8z"/>
<path d="M5916 3524 c-136 -27 -273 -112 -333 -208 -54 -84 -76 -201 -62 -325
12 -109 66 -214 163 -318 16 -18 28 -34 25 -36 -2 -2 -43 -29 -90 -60 -190
-125 -284 -274 -296 -472 -16 -271 137 -479 417 -567 66 -20 95 -23 240 -23
140 0 178 4 248 23 94 25 203 77 275 130 29 21 52 31 55 25 4 -5 31 -40 61
-77 l54 -66 224 0 c137 0 223 4 223 10 0 5 -72 93 -160 195 l-160 185 24 38
c47 75 114 218 145 310 27 81 61 236 61 279 0 11 -29 13 -161 11 l-162 -3 -17
-85 c-17 -83 -62 -217 -91 -273 l-15 -27 -156 182 -156 182 87 57 c196 127
283 271 282 464 0 138 -35 228 -122 315 -127 127 -368 181 -603 134z m240
-279 c83 -24 134 -96 134 -187 -1 -98 -60 -182 -175 -248 l-59 -34 -38 45
c-128 145 -160 244 -112 341 26 51 104 95 175 97 14 1 48 -6 75 -14z m-80
-1007 c77 -89 165 -193 197 -230 l58 -67 -42 -30 c-172 -125 -445 -108 -534
34 -27 44 -30 56 -30 134 0 71 4 95 24 136 32 63 121 151 187 184 1 1 64 -72
140 -161z"/>
<path d="M3440 2530 l0 -980 388 0 c281 0 422 4 516 15 332 39 556 183 690
445 90 176 111 278 110 535 -1 183 -3 208 -27 299 -100 374 -361 599 -762 656
-38 5 -260 10 -492 10 l-423 0 0 -980z m923 587 c82 -28 167 -79 209 -126 60
-68 114 -190 134 -302 19 -112 15 -291 -10 -384 -36 -134 -120 -257 -213 -311
-95 -56 -150 -66 -390 -72 l-223 -4 0 612 0 612 223 -5 c167 -3 234 -8 270
-20z"/>
<path d="M7310 2531 l0 -981 379 0 c490 0 631 15 802 84 241 97 421 314 491
592 20 78 23 115 23 299 0 215 -4 249 -47 385 -94 295 -315 494 -636 572 -81
20 -121 22 -549 25 l-463 4 0 -980z m872 595 c196 -42 322 -170 375 -382 24
-97 24 -344 -1 -433 -43 -157 -136 -281 -250 -335 -87 -41 -186 -55 -388 -56
l-178 0 0 610 0 610 188 0 c122 0 210 -5 254 -14z"/>
</g>
</svg>
